<?xml version="1.0" encoding="iso-8859-1"?>
<!-- Generator: Adobe Illustrator 23.1.0, SVG Export Plug-In . SVG Version: 6.00 Build 0)  -->
<svg version="1.1" id="Layer_1" xmlns="http://www.w3.org/2000/svg" xmlns:xlink="http://www.w3.org/1999/xlink" x="0px" y="0px"
	 viewBox="0 0 130 130" style="enable-background:new 0 0 130 130;" xml:space="preserve">
<g>
	<path style="fill:#FFFFFF;" d="M74.82,127.099c0-14.538,0-28.96,0-43.524c4.827,0,9.571,0,14.443,0
		c0.941-6.052,1.864-11.986,2.82-18.137c-5.772,0-11.471,0-17.35,0c0-1.27-0.002-2.336,0-3.402c0.005-2.799-0.004-5.599,0.02-8.398
		c0.053-6.071,3.672-9.695,9.749-9.754c2.687-0.026,5.375-0.004,8.267-0.004c0-2.672,0-5.161,0-7.65c0-2.498,0-4.996,0-7.548
		c-2.412-0.531-4.742-0.797-7.07-0.958c-4.796-0.333-9.609-0.707-14.342,0.56c-8.612,2.304-13.526,8.085-15.458,16.6
		c-0.566,2.496-0.657,5.051-0.647,7.608c0.016,4.217,0.004,8.434,0.004,12.817c-5.29,0-10.465,0-15.772,0c0,6.118,0,12.07,0,18.177
		c5.189,0,10.373,0,15.664,0c0,14.616,0,29.08,0,43.544C26.372,122.992,0.831,96.552,2.585,62.077
		c1.646-32.345,27.507-57.78,59.783-59.12c33.68-1.399,61.371,23.609,64.772,55.675C130.719,92.379,107.24,122.005,74.82,127.099z"
		/>
</g>
</svg>
