<?xml version="1.0" encoding="iso-8859-1"?>
<!-- Generator: Adobe Illustrator 23.1.0, SVG Export Plug-In . SVG Version: 6.00 Build 0)  -->
<svg version="1.1" id="Layer_1" xmlns="http://www.w3.org/2000/svg" xmlns:xlink="http://www.w3.org/1999/xlink" x="0px" y="0px"
	 viewBox="0 0 130 130" style="enable-background:new 0 0 130 130;" xml:space="preserve">
<path style="fill:#FFFFFF;" d="M65,2.993c-34.242,0-62,27.758-62,62c0,34.242,27.758,62,62,62s62-27.758,62-62
	C127,30.752,99.242,2.993,65,2.993z M64.909,65.082c0.018-0.059,0.035-0.118,0.053-0.177c0.043,0.022,0.086,0.045,0.13,0.067
	C65.03,65.008,64.97,65.045,64.909,65.082z M112.343,87.033c-1.656,0.685-2.354,1.572-2.621,3.52
	c-1.44,10.503-9.528,18.196-20.129,19.323c-2.477,0.263-5.011,0.166-7.507,0.027c-2.489-0.139-4.186-2.263-4.206-5.06
	c-0.034-4.697-0.012-9.394-0.012-14.091c0-6.85,0.043-13.7-0.016-20.55c-0.027-3.136,1.64-5.101,4.625-5.225
	c4.46-0.185,8.926-0.215,13.182,1.528c2.485,1.018,4.758,2.359,6.766,4.144c0.31,0.275,0.629,0.54,1,0.858
	c0.415-18.183-13.834-37.215-36.144-38.503c-23.343-1.348-40.872,17.411-40.774,38.561c0.963-1.059,1.937-1.906,2.997-2.607
	c3.787-2.504,7.978-3.833,12.517-4.002c1.681-0.063,3.367-0.064,5.049-0.02c3.084,0.081,5.046,2.039,5.053,5.137
	c0.026,11.586,0.026,23.172,0,34.758c-0.007,3.209-2.031,5.155-5.259,5.135c-3.278-0.02-6.575,0.23-9.8-0.67
	c-8.666-2.42-14.104-8.013-16.453-16.663c-0.182-0.67-0.615-1.394-0.491-2.004c0.41-2.022-0.665-2.82-2.299-3.504
	c-3.009-1.26-4.329-3.65-4.266-6.887c0.085-4.342-0.159-8.688,0.223-13.026c0.304-3.449,0.827-6.856,1.803-10.184
	c1.948-6.643,5.089-12.677,9.488-18.007c8.13-9.852,18.477-16.049,31.089-18.253c11.694-2.043,22.872-0.276,33.285,5.408
	c11.396,6.22,19.396,15.488,23.901,27.722c2.148,5.833,3.065,11.864,3.093,18.053c0.013,2.857,0.015,5.715,0.006,8.572
	C116.432,83.54,115.191,85.854,112.343,87.033z M124.853,64.54c0.001,0.153,0.012,0.304,0.012,0.458c0,0.15-0.01,0.298-0.011,0.449
	C124.853,65.145,124.853,64.842,124.853,64.54z"/>
<path style="fill:#7FBF2D;" d="M124.853,64.54c0,0.302,0,0.604,0,0.906c0.001-0.15,0.011-0.298,0.011-0.449
	C124.865,64.844,124.854,64.694,124.853,64.54z"/>
<path style="fill:#7FBF2D;" d="M64.909,65.082c0.061-0.037,0.122-0.074,0.183-0.11c-0.043-0.022-0.086-0.045-0.13-0.067
	C64.944,64.964,64.926,65.023,64.909,65.082z M64.983,64.994c0.014-0.008,0.028-0.017,0.042-0.026
	c-0.005,0.016-0.01,0.033-0.015,0.049c-0.013-0.004-0.024-0.005-0.037-0.008C64.977,65.004,64.981,65,64.983,64.994z"/>
<path style="fill:#7FBF2D;" d="M65.026,64.969c-0.014,0.008-0.028,0.017-0.042,0.026c-0.003,0.005-0.006,0.01-0.009,0.015
	c0.012,0.004,0.024,0.004,0.037,0.008C65.016,65.002,65.021,64.985,65.026,64.969z"/>
</svg>
