<?xml version="1.0" encoding="iso-8859-1"?>
<!-- Generator: Adobe Illustrator 23.1.0, SVG Export Plug-In . SVG Version: 6.00 Build 0)  -->
<svg version="1.1" id="Layer_1" xmlns="http://www.w3.org/2000/svg" xmlns:xlink="http://www.w3.org/1999/xlink" x="0px" y="0px"
	 viewBox="0 0 130 130" style="enable-background:new 0 0 130 130;" xml:space="preserve">
<g>
	<path style="fill:#FFFFFF;" d="M127.675,65.011c0-34.614-28.061-62.675-62.675-62.675S2.325,30.397,2.325,65.011
		c0,34.329,27.604,62.196,61.824,62.653c0.565,0,1.131,0,1.696,0C100.069,127.21,127.675,99.342,127.675,65.011z M86.956,109.047
		c-11.693,1.092-23.415,0.673-35.125,0.523c-4.876-0.062-9.801-0.097-14.525-1.746c-9.212-3.216-14.557-9.742-16.051-19.244
		c-1.222-7.768-0.859-15.655-0.904-23.495c-0.041-7.137-0.036-14.283,0.569-21.401c1.085-12.775,9.633-21.441,21.623-22.595
		c14.294-1.376,28.642-0.971,42.954-0.287c9.039,0.432,16.328,4.374,20.81,12.587c2.239,4.103,3.05,8.62,3.153,13.223
		c0.135,6.046,0.033,12.097,0.033,18.145c0.253,7.137,0.282,14.277-0.254,21.401C108.214,99.746,98.674,107.953,86.956,109.047z"/>
	<circle style="fill:#FFFFFF;" cx="64.998" cy="64.973" r="14.93"/>
	<path style="fill:#FFFFFF;" d="M101.771,65.643c-0.065-7.617,0.355-15.251-0.72-22.843c-0.6-4.238-2.476-7.693-5.766-10.439
		c-3.139-2.62-6.93-3.467-10.784-3.692c-12.953-0.758-25.921-0.659-38.878-0.028c-2.59,0.126-5.188,0.656-7.586,1.773
		c-6.288,2.928-8.729,8.271-9.28,14.815c-0.549,6.527-0.309,13.068-0.362,19.602c0,3.706,0.021,7.412-0.006,11.118
		c-0.028,3.763,0.243,7.498,0.698,11.234c0.832,6.828,6.143,12.592,12.863,13.594c3.33,0.497,6.704,0.961,10.06,0.975
		c10.296,0.042,20.601,0.409,30.887-0.278c3.242-0.217,6.526-0.541,9.515-2.026c6.13-3.044,8.481-8.372,8.985-14.856
		C101.885,78.281,101.825,71.96,101.771,65.643z M64.998,88.264c-12.863,0-23.29-10.427-23.29-23.29s10.427-23.29,23.29-23.29
		s23.29,10.427,23.29,23.29S77.861,88.264,64.998,88.264z M88.948,46.424c-2.877-0.006-5.249-2.416-5.245-5.331
		c0.003-2.929,2.372-5.313,5.257-5.293c2.914,0.021,5.226,2.379,5.225,5.329C94.184,44.117,91.896,46.43,88.948,46.424z"/>
</g>
</svg>
