<?xml version="1.0" encoding="iso-8859-1"?>
<!-- Generator: Adobe Illustrator 23.1.0, SVG Export Plug-In . SVG Version: 6.00 Build 0)  -->
<svg version="1.1" id="Layer_1" xmlns="http://www.w3.org/2000/svg" xmlns:xlink="http://www.w3.org/1999/xlink" x="0px" y="0px"
	 viewBox="0 0 110 110" style="enable-background:new 0 0 110 110;" xml:space="preserve">
<circle style="fill:#EDEDEC;" cx="7" cy="7" r="5"/>
<circle style="fill:#EDEDEC;" cx="19" cy="7" r="5"/>
<circle style="fill:#EDEDEC;" cx="31" cy="7" r="5"/>
<circle style="fill:#040000;" cx="43" cy="7" r="5"/>
<circle style="fill:#040000;" cx="55" cy="7" r="5"/>
<circle style="fill:#EDEDEC;" cx="67" cy="7" r="5"/>
<circle style="fill:#EDEDEC;" cx="79" cy="7" r="5"/>
<circle style="fill:#040000;" cx="91" cy="7" r="5"/>
<circle style="fill:#040000;" cx="103" cy="7" r="5"/>
<circle style="fill:#EDEDEC;" cx="7" cy="19" r="5"/>
<circle style="fill:#EDEDEC;" cx="19" cy="19" r="5"/>
<circle style="fill:#040000;" cx="31" cy="19" r="5"/>
<circle style="fill:#040000;" cx="43" cy="19" r="5"/>
<circle style="fill:#EDEDEC;" cx="55" cy="19" r="5"/>
<circle style="fill:#EDEDEC;" cx="67" cy="19" r="5"/>
<circle style="fill:#040000;" cx="79" cy="19" r="5"/>
<circle style="fill:#040000;" cx="91" cy="19" r="5"/>
<circle style="fill:#EDEDEC;" cx="103" cy="19" r="5"/>
<circle style="fill:#EDEDEC;" cx="7" cy="31" r="5"/>
<circle style="fill:#040000;" cx="19" cy="31" r="5"/>
<circle style="fill:#040000;" cx="31" cy="31" r="5"/>
<circle style="fill:#040000;" cx="43" cy="31" r="5"/>
<circle style="fill:#EDEDEC;" cx="55" cy="31" r="5"/>
<circle style="fill:#040000;" cx="67" cy="31" r="5"/>
<circle style="fill:#040000;" cx="79" cy="31" r="5"/>
<circle style="fill:#040000;" cx="91" cy="31" r="5"/>
<circle style="fill:#EDEDEC;" cx="103" cy="31" r="5"/>
<circle style="fill:#EDEDEC;" cx="7" cy="43" r="5"/>
<circle style="fill:#040000;" cx="19" cy="43" r="5"/>
<circle style="fill:#040000;" cx="31" cy="43" r="5"/>
<circle style="fill:#EDEDEC;" cx="43" cy="43" r="5"/>
<circle style="fill:#EDEDEC;" cx="55" cy="43" r="5"/>
<circle style="fill:#040000;" cx="67" cy="43" r="5"/>
<circle style="fill:#040000;" cx="79" cy="43" r="5"/>
<circle style="fill:#EDEDEC;" cx="91" cy="43" r="5"/>
<circle style="fill:#EDEDEC;" cx="103" cy="43" r="5"/>
<circle style="fill:#EDEDEC;" cx="7" cy="55" r="5"/>
<circle style="fill:#040000;" cx="19" cy="55" r="5"/>
<circle style="fill:#040000;" cx="31" cy="55" r="5"/>
<circle style="fill:#EDEDEC;" cx="43" cy="55" r="5"/>
<circle style="fill:#EDEDEC;" cx="55" cy="55" r="5"/>
<circle style="fill:#040000;" cx="67" cy="55" r="5"/>
<circle style="fill:#040000;" cx="79" cy="55" r="5"/>
<circle style="fill:#EDEDEC;" cx="91" cy="55" r="5"/>
<circle style="fill:#EDEDEC;" cx="103" cy="55" r="5"/>
<circle style="fill:#EDEDEC;" cx="7" cy="67" r="5"/>
<circle style="fill:#040000;" cx="19" cy="67" r="5"/>
<circle style="fill:#040000;" cx="31" cy="67" r="5"/>
<circle style="fill:#EDEDEC;" cx="43" cy="67" r="5"/>
<circle style="fill:#EDEDEC;" cx="55" cy="67" r="5"/>
<circle style="fill:#040000;" cx="67" cy="67" r="5"/>
<circle style="fill:#040000;" cx="79" cy="67" r="5"/>
<circle style="fill:#EDEDEC;" cx="91" cy="67" r="5"/>
<circle style="fill:#EDEDEC;" cx="103" cy="67" r="5"/>
<circle style="fill:#EDEDEC;" cx="7" cy="79" r="5"/>
<circle style="fill:#040000;" cx="19" cy="79" r="5"/>
<circle style="fill:#040000;" cx="31" cy="79" r="5"/>
<circle style="fill:#040000;" cx="43" cy="79" r="5"/>
<circle style="fill:#EDEDEC;" cx="55" cy="79" r="5"/>
<circle style="fill:#040000;" cx="67" cy="79" r="5"/>
<circle style="fill:#040000;" cx="79" cy="79" r="5"/>
<circle style="fill:#040000;" cx="91" cy="79" r="5"/>
<circle style="fill:#EDEDEC;" cx="103" cy="79" r="5"/>
<circle style="fill:#EDEDEC;" cx="7" cy="91" r="5"/>
<circle style="fill:#040000;" cx="19" cy="91" r="5"/>
<circle style="fill:#040000;" cx="31" cy="91" r="5"/>
<circle style="fill:#040000;" cx="43" cy="91" r="5"/>
<circle style="fill:#EDEDEC;" cx="55" cy="91" r="5"/>
<circle style="fill:#040000;" cx="67" cy="91" r="5"/>
<circle style="fill:#040000;" cx="79" cy="91" r="5"/>
<circle style="fill:#040000;" cx="91" cy="91" r="5"/>
<circle style="fill:#EDEDEC;" cx="103" cy="91" r="5"/>
<circle style="fill:#EDEDEC;" cx="7" cy="103" r="5"/>
<circle style="fill:#040000;" cx="19" cy="103" r="5"/>
<circle style="fill:#040000;" cx="31" cy="103" r="5"/>
<circle style="fill:#040000;" cx="43" cy="103" r="5"/>
<circle style="fill:#EDEDEC;" cx="55" cy="103" r="5"/>
<circle style="fill:#040000;" cx="67" cy="103" r="5"/>
<circle style="fill:#040000;" cx="79" cy="103" r="5"/>
<circle style="fill:#040000;" cx="91" cy="103" r="5"/>
<circle style="fill:#EDEDEC;" cx="103" cy="103" r="5"/>
</svg>
