<?xml version="1.0" encoding="iso-8859-1"?>
<!-- Generator: Adobe Illustrator 23.1.0, SVG Export Plug-In . SVG Version: 6.00 Build 0)  -->
<svg version="1.1" id="Layer_1" xmlns="http://www.w3.org/2000/svg" xmlns:xlink="http://www.w3.org/1999/xlink" x="0px" y="0px"
	 viewBox="0 0 130 130" style="enable-background:new 0 0 130 130;" xml:space="preserve">
<path style="fill:#EF7D24;" d="M124.865,64.998c0-0.154-0.01-0.304-0.012-0.458c0,0.302,0,0.604,0,0.906
	C124.854,65.296,124.865,65.148,124.865,64.998z"/>
<path style="fill:#EF7D24;" d="M107.198,38.948c0.061-0.037,0.122-0.074,0.183-0.11c-0.043-0.022-0.086-0.045-0.13-0.067
	C107.234,38.83,107.216,38.889,107.198,38.948z"/>
<path style="fill:#EF7D24;" d="M107.147,38.989c0.012,0.004,0.024,0.004,0.037,0.008c0.005-0.016,0.01-0.033,0.015-0.049
	c-0.014,0.008-0.028,0.017-0.042,0.026C107.153,38.979,107.15,38.984,107.147,38.989z"/>
<path style="fill:#FFFFFF;" d="M65.089,3.076c-34.199,0-61.922,27.724-61.922,61.922c0,34.199,27.724,61.922,61.922,61.922
	c34.043,0,61.659-27.474,61.911-61.458c0-0.313,0-0.626,0-0.939C126.744,30.545,99.129,3.076,65.089,3.076z M108.711,38.013
	c-0.005,0.017-0.01,0.034-0.015,0.051c-0.013-0.004-0.025-0.005-0.038-0.009c-1.633,2.969-4.004,5.295-6.636,7.342
	c-1.281,0.996-1.809,2.011-1.876,3.72c-0.81,20.889-9.918,36.825-28.62,46.704c-6.915,3.653-14.506,5.016-22.323,5.097
	c-9.429,0.098-18.225-2.195-26.404-6.87c-0.542-0.31-1.187-0.518-1.521-1.154c9.3,0.926,18.866-1.805,26.133-7.556
	c-8.124-0.894-13.859-4.748-16.692-12.631c2.597,0.285,5.033,0.603,7.773-0.375c-8.979-2.83-13.593-8.739-14.207-17.964
	c2.464,1.235,4.917,2.046,8.059,2.205c-4.028-3.056-6.533-6.667-7.458-11.197c-0.913-4.469-0.332-8.767,2.031-12.911
	c9.833,11.483,22.14,17.83,37.301,18.839c-0.442-3.476-0.451-6.802,0.69-10.079c4.296-12.343,20.009-16.222,29.486-7.225
	c0.602,0.572,1.078,0.765,1.957,0.569c2.915-0.651,5.666-1.694,8.324-3.026c0.51-0.255,0.973-0.656,1.789-0.653
	c-1.264,4.027-3.971,6.82-7.485,9.455c3.032-0.34,5.535-1.088,8.027-1.9c0.532-0.174,1.031-0.574,1.65-0.388
	c0.003-0.005,0.006-0.01,0.009-0.016C108.682,38.03,108.697,38.021,108.711,38.013c0.018-0.061,0.037-0.122,0.055-0.184
	c0.045,0.023,0.09,0.046,0.134,0.069C108.837,37.936,108.774,37.975,108.711,38.013z"/>
</svg>
