<?xml version="1.0" encoding="iso-8859-1"?>
<!-- Generator: Adobe Illustrator 23.1.0, SVG Export Plug-In . SVG Version: 6.00 Build 0)  -->
<svg version="1.1" id="Layer_1" xmlns="http://www.w3.org/2000/svg" xmlns:xlink="http://www.w3.org/1999/xlink" x="0px" y="0px"
	 viewBox="0 0 130 130" style="enable-background:new 0 0 130 130;" xml:space="preserve">
<path style="fill:#7FBF2D;" d="M124.853,64.54c0,0.302,0,0.604,0,0.906c0.001-0.15,0.011-0.298,0.011-0.449
	C124.865,64.844,124.854,64.694,124.853,64.54z"/>
<g>
	<path style="fill:#7FBF2D;" d="M64.909,65.082c0.061-0.037,0.122-0.074,0.183-0.11c-0.043-0.022-0.086-0.045-0.13-0.067
		C64.944,64.964,64.926,65.023,64.909,65.082z M64.983,64.994c0.014-0.008,0.028-0.017,0.042-0.026
		c-0.005,0.016-0.01,0.033-0.015,0.049c-0.013-0.004-0.024-0.005-0.037-0.008C64.977,65.004,64.981,65,64.983,64.994z"/>
	<path style="fill:#7FBF2D;" d="M65.026,64.969c-0.014,0.008-0.028,0.017-0.042,0.026c-0.003,0.005-0.006,0.01-0.009,0.015
		c0.012,0.004,0.024,0.004,0.037,0.008C65.016,65.002,65.021,64.985,65.026,64.969z"/>
	<polygon style="fill:#4766AF;" points="64.909,2.899 64.908,2.899 64.909,2.899 	"/>
	<path style="fill:#FFFFFF;" d="M3.267,64.54c0,34.044,27.598,61.641,61.641,61.641S126.55,98.584,126.55,64.54
		c0-34.043-27.598-61.641-61.641-61.641c0,0,0,0-0.001,0C30.865,2.899,3.267,30.497,3.267,64.54z M76.634,29.651
		c7.776,0.133,15.55,0.42,23.295,1.203c4.789,0.484,9.083,1.891,11.862,6.236c1.599,2.499,2.042,5.345,2.407,8.165
		c1.711,13.242,1.638,26.498,0.024,39.746c-0.585,4.803-1.953,9.2-6.46,11.909c-2.095,1.259-4.388,1.752-6.763,2.039
		c-12.095,1.464-24.257,1.342-35.402,1.599c-11.052-0.131-21.1-0.256-31.126-1.003c-3.169-0.236-6.378-0.347-9.436-1.35
		c-4.31-1.415-7.195-4.256-8.346-8.702c-1.279-4.942-1.62-10.015-1.893-15.08c-0.517-9.618-0.307-19.224,0.938-28.784
		c0.453-3.478,1.016-6.921,3.393-9.798c2.809-3.401,6.581-4.565,10.71-4.945C45.409,29.451,61.02,29.385,76.634,29.651z"/>
	<path style="fill:#FFFFFF;" d="M54.736,50.08c0,10.047,0,19.879,0,29.948c8.808-5.019,17.458-9.949,26.261-14.965
		C72.127,60.002,63.5,55.08,54.736,50.08z"/>
</g>
</svg>
