<?xml version="1.0" encoding="iso-8859-1"?>
<!-- Generator: Adobe Illustrator 23.1.0, SVG Export Plug-In . SVG Version: 6.00 Build 0)  -->
<svg version="1.1" id="Layer_1" xmlns="http://www.w3.org/2000/svg" xmlns:xlink="http://www.w3.org/1999/xlink" x="0px" y="0px"
	 viewBox="0 0 800 800" style="enable-background:new 0 0 800 800;" xml:space="preserve">
<path d="M238.132,255.537h5.953v1.643h-2.14v7.844h-1.682v-7.844h-2.13V255.537z M245.833,255.537h5.004v1.643h-3.333v2.159h2.915
	v1.644h-2.915v2.398h3.384v1.643h-5.056V255.537z M255.837,261.378l-1.611,3.646h-1.794l2.314-4.905l-2.141-4.582h1.784l1.448,3.346
	l1.437-3.346h1.794l-2.151,4.582l2.324,4.905h-1.794L255.837,261.378z M260.531,255.537h5.953v1.643h-2.14v7.844h-1.682v-7.844
	h-2.13V255.537z M272.251,255.537h1.671v7.844h3.384v1.643h-5.056V255.537z M279.075,255.537h5.004v1.643h-3.333v2.159h2.915v1.644
	h-2.915v2.398h3.384v1.643h-5.056V255.537z M287.335,255.537l1.794,7.376l1.794-7.376h1.712l-2.579,9.487h-1.855l-2.579-9.487
	H287.335z M294.354,255.537h5.004v1.643h-3.333v2.159h2.915v1.644h-2.915v2.398h3.384v1.643h-5.056V255.537z M301.422,255.537h1.671
	v7.844h3.384v1.643h-5.056V255.537z M289,266c-0.552,0-1,0.448-1,1s0.448,1,1,1s1-0.448,1-1S289.552,266,289,266z"/>
<g>
	<path d="M272.024,364.849c-1.514,1.004-2.873,2.208-4.455,2.908c-19.545,8.658-26.09,34.626-10.447,51.574
		c8.914,9.658,20.487,13.144,33.512,8.874c12.776-4.189,20.335-12.965,22.392-26.337c2.352-15.292-6.518-29.011-18.921-34.298
		c-1.445-0.616-2.683-1.719-4.021-2.599c0.82-3.413,2.508-3.226,4.891-2.268c11.041,4.443,18.59,12.475,21.708,23.676
		c6.075,21.829-5.799,41.643-26.542,47.06c-23.156,6.047-45.466-11.561-46.338-34.169c-0.685-17.773,10.538-31.776,23.082-36.51
		C268.922,361.99,270.671,361.224,272.024,364.849z"/>
	<path d="M280.11,378.145c-0.447-1.532-1.352-3.092-1.262-4.592c0.41-6.824-1.35-13.875,1.014-20.512
		c0.535-0.081,1.071-0.162,1.606-0.244c0.57,1.165,1.644,2.337,1.629,3.495c-0.093,7.228,0.866,14.558-0.584,21.687
		C281.711,378.034,280.911,378.09,280.11,378.145z"/>
</g>
<g>
	<path d="M132.993,465.97c-2.653-0.212-5.634-0.336-8.582-0.717c-3.081-0.398-4.545-2.314-4.61-5.439
		c-0.083-3.981-0.364-7.958-0.436-11.94c-0.093-5.143-2.644-9.138-5.843-12.819c-7.491-8.62-8.658-18.349-4.491-28.632
		c4.313-10.647,13.115-16.01,24.084-16.148c16.174-0.204,26.919,12.822,26.972,26.033c0.03,7.518-2.093,13.909-7.223,19.355
		c-4.088,4.34-5.601,9.672-5.767,15.473c-0.081,2.826-0.13,5.659-0.013,8.482c0.145,3.469-1.598,5.33-4.831,5.741
		C139.302,465.734,136.308,465.766,132.993,465.97z M142.391,443.817c0.914-2.141,1.557-4.198,2.627-6.001
		c1.17-1.974,2.769-3.688,4.116-5.563c1.158-1.611,2.351-3.218,3.308-4.949c4.201-7.599,3.248-17.171-2.263-23.617
		c-6.364-7.445-15.433-9.982-24.124-6.747c-14.291,5.319-18.601,22.663-8.819,34.834c2.93,3.646,5.294,7.748,8.189,12.045
		C130.629,443.817,136.586,443.817,142.391,443.817z M125.27,459.722c5.814,0,11.175,0,16.345,0c0-3.664,0-6.892,0-10.205
		c-5.608,0-10.844,0-16.345,0C125.27,453.011,125.27,456.244,125.27,459.722z"/>
	<path d="M136.042,379.761c-0.359,1.957,0.939,5.177-2.692,5.085c-3.15-0.08-2.401-3.005-2.308-4.97
		c0.104-2.181-1.269-5.71,2.578-5.644C137.015,374.29,135.71,377.597,136.042,379.761z"/>
	<path d="M100.327,388.129c1.557,2.144,3.212,4.226,4.612,6.468c0.414,0.663,0.457,2.012,0.042,2.614
		c-0.437,0.634-2.08,1.288-2.411,1.007c-2.098-1.777-4.137-3.691-5.796-5.864c-0.324-0.424,1.104-2.185,1.724-3.33
		C99.108,388.726,99.717,388.427,100.327,388.129z"/>
	<path d="M160.34,394.889c2.072-1.641,4.106-3.333,6.227-4.907c1.589-1.18,3.062-0.619,3.452,1.135
		c0.786,3.53-2.534,4.775-4.432,6.589C163.915,399.304,162.22,398.24,160.34,394.889z"/>
</g>
<g>
	<path style="fill:#4256E5;" d="M348.646,657.916c-13.532-0.005-27.064-0.037-40.596,0.061c-0.968,0.007-3.417-0.829-2.887,0.74
		c0.98,2.901-1.102,8.379,3.413,8.456c24.602,0.422,49.216,0.318,73.824,0.136c8.574-0.064,11.39,3.732,9.069,11.671
		c-0.778,2.662-0.557,4.167,2.033,6c7.373,5.219,8.376,15.993,2.626,23.129c-5.692,7.063-16.033,8.092-23.11,2.3
		c-7.029-5.752-8.015-16.236-2.179-23.131c0.284-0.336,0.541-0.695,0.81-1.043c-0.484-0.06-0.967-0.172-1.451-0.172
		c-19.242-0.009-38.484-0.009-57.726-0.001c-0.491,0-0.983,0.104-1.474,0.159c0.184,0.323,0.326,0.679,0.558,0.964
		c5.804,7.139,4.992,17.417-1.831,23.071c-6.868,5.691-17.365,5.007-22.881-1.491c-6.248-7.36-5.627-17.601,1.952-23.533
		c3.134-2.453,1.377-4.779,0.921-7.048c-6.289-31.243-12.713-62.458-19.062-93.689c-0.26-1.277-0.779-1.617-2.036-1.604
		c-6.109,0.065-12.223,0.183-18.327-0.01c-7.6-0.241-7.635-5.714-7.418-11.258c0.186-4.754,2.571-7.28,7.382-7.299
		c7.765-0.032,15.593,0.604,23.28-0.173c9.456-0.956,14.286,2.608,14.521,12.021c0.143,5.723,2.716,6.953,8.286,6.904
		c35.569-0.313,71.142-0.184,106.714-0.137c6.727,0.009,9.475,3.495,7.983,10.095c-4.412,19.517-8.877,39.021-13.29,58.538
		c-0.953,4.217-3.44,6.368-7.821,6.36C376.167,657.906,362.407,657.922,348.646,657.916z"/>
</g>
<g>
	<path style="fill:#61EA2F;" d="M599.089,663.145c-16.953,0-33.906-0.097-50.857,0.047c-6.843,0.058-12.718-4.36-14.319-10.701
		c-0.257-1.019-0.314-2.032-0.325-3.047c-0.065-5.987-0.525-12.028,0.24-17.945c0.775-5.995,2.938-11.68,6.482-16.728
		c5.118-7.289,11.871-12.412,20.287-15.285c5.537-1.89,11.31-2.229,17.07-1.766c2.135,0.171,4.164,1.469,6.28,2.128
		c11.961,3.725,23.709,3.01,35.25-1.771c0.519-0.215,1.08-0.426,1.63-0.452c7.927-0.378,15.612,0.549,22.708,4.421
		c11.627,6.345,18.666,16.035,20.674,29.133c1.022,6.671,0.614,13.45,0.271,20.164c-0.292,5.732-6.516,11.493-12.31,11.71
		c-4.275,0.16-8.56,0.087-12.841,0.089C625.917,663.15,612.503,663.145,599.089,663.145z"/>
	<path style="fill:#61EA2F;" d="M599.235,513.27c20.737,0.042,37.401,16.806,37.319,37.543c-0.082,20.7-16.759,37.329-37.4,37.292
		c-20.89-0.038-37.541-16.786-37.518-37.549C561.658,530.053,578.495,513.099,599.235,513.27z"/>
</g>
<g>
	<polygon points="294.06,278.862 297.648,278.862 299.36,278.862 296.781,288.349 294.926,288.349 292.347,278.862 	"/>
</g>
<circle cx="295.724" cy="290.325" r="1"/>
<g>
	<path style="fill:#82C81E;" d="M1027.617,53.247C912.558,53.299,817.631-39.024,815.49-154.165
		c-2.223-119.547,92.904-216.545,211.878-216.689c116.409-0.14,210.327,93.016,212.056,208.384
		C1241.211-43.155,1147.789,51.708,1027.617,53.247z M959.547-57.202c0.029,5.417,1.958,10.041,6.43,14.699
		c3.807,3.966,7.774,7.777,11.669,11.658c11.442,11.398,22.346,11.393,33.817-0.048c36.808-36.71,73.611-73.426,110.412-110.143
		c12.097-12.069,12.108-23.368,0.011-35.448c-31.125-31.083-62.248-62.167-93.403-93.22c-7.077-7.054-14.043-14.25-21.496-20.89
		c-7.021-6.255-17.857-6.423-24.801-0.289c-6.473,5.717-12.633,11.899-18.224,18.477c-6.31,7.424-6.09,16.544-0.254,24.376
		c1.681,2.256,3.718,4.266,5.718,6.262c26.415,26.367,52.806,52.759,79.35,78.996c3.034,2.999,3.266,4.566,0.054,7.743
		c-27.129,26.83-54.046,53.875-81.029,80.852C963.09-69.467,959.322-64.306,959.547-57.202z"/>
</g>
<g>
	<path style="fill:#F683AC;" d="M1320.921,933.833c-0.63,0.131-1.26,0.262-1.89,0.393c-4.375,1.09-8.746,1.144-13.111-0.057
		c-5.995-2.439-10.079-7.367-14.848-11.404c-4.647-5.24-9.603-10.171-14.82-14.842c-3.758-4.363-7.821-8.421-12.171-12.193
		c-5.261-5.272-10.521-10.545-15.784-15.817c-3.74-3.728-7.479-7.457-11.217-11.185c-5.279-5.268-10.558-10.535-15.838-15.802
		c-3.761-4.348-7.813-8.403-12.174-12.149c-4.666-5.236-9.614-10.189-14.863-14.84c-3.74-4.354-7.796-8.393-12.142-12.141
		c-4.095-4.481-6.234-9.747-6.351-15.824c0.193-5.775,2.609-10.602,6.338-14.87c4.303-3.731,8.32-7.748,12.05-12.052
		c5.274-4.694,10.255-9.681,14.945-14.959c4.297-3.73,8.327-7.727,12.016-12.062c5.645-5.001,10.966-10.325,15.967-15.97
		c4.334-3.686,8.343-7.695,12.028-12.03c5.311-4.673,10.311-9.655,14.967-14.983c4.335-3.68,8.35-7.678,12.017-12.025
		c5.333-4.647,10.32-9.64,14.986-14.955c4.71-4.063,8.865-8.797,14.389-11.874c4.172-0.208,8.345-0.704,12.515,0.027
		c0.778,1.047,1.95,0.758,3,0.882c3.676,2.508,7.107,5.281,10.237,8.479c4.832,4.937,9.861,9.681,14.807,14.507
		c1.004,1.312,2.007,2.624,3.011,3.936c4.622,8.751,4.61,17.138-1.966,25.009c-0.347,0.291-0.694,0.582-1.041,0.873
		c-2.922,2.887-5.931,5.693-8.749,8.679c-6.089,6.452-13.063,12.054-18.435,19.193c-9.708,8.38-18.715,17.461-27.135,27.129
		c-0.25,0.255-0.5,0.51-0.75,0.768c-8.893,8.563-17.873,17.037-26.004,26.35c0.223,0.604,0.278,1.377,0.693,1.788
		c8.458,8.386,16.956,16.731,25.447,25.084c0.353,0.354,0.706,0.709,1.059,1.063c8.536,9.442,17.616,18.343,26.872,27.071
		c8.66,9.333,17.68,18.307,26.929,27.053c7.956,10.103,8.521,17.315,2.191,27.955c-0.744,0.886-1.488,1.773-2.231,2.659
		C1337.272,918.108,1330.407,927.384,1320.921,933.833z"/>
</g>
<g>
	<path style="fill:#F683AC;" d="M1625.229,1010.455c0.63,0.131,1.26,0.262,1.89,0.393c4.375,1.09,8.746,1.144,13.111-0.057
		c5.995-2.439,10.079-7.367,14.848-11.404c4.647-5.24,9.603-10.171,14.82-14.842c3.758-4.363,7.821-8.421,12.171-12.193
		c5.261-5.272,10.521-10.545,15.784-15.817c3.74-3.728,7.479-7.457,11.217-11.185c5.279-5.268,10.558-10.535,15.838-15.802
		c3.761-4.348,7.814-8.403,12.174-12.149c4.666-5.236,9.614-10.189,14.863-14.84c3.741-4.354,7.796-8.393,12.142-12.141
		c4.095-4.481,6.234-9.747,6.351-15.824c-0.193-5.775-2.609-10.602-6.338-14.87c-4.303-3.731-8.32-7.748-12.05-12.052
		c-5.274-4.694-10.255-9.681-14.945-14.959c-4.297-3.73-8.327-7.727-12.016-12.062c-5.645-5.001-10.966-10.325-15.967-15.97
		c-4.334-3.686-8.344-7.695-12.028-12.03c-5.311-4.673-10.311-9.655-14.967-14.983c-4.335-3.68-8.35-7.678-12.017-12.025
		c-5.333-4.647-10.32-9.64-14.986-14.955c-4.71-4.063-8.865-8.797-14.389-11.874c-4.172-0.208-8.345-0.704-12.515,0.027
		c-0.778,1.047-1.949,0.758-3,0.882c-3.676,2.508-7.107,5.281-10.237,8.479c-4.832,4.937-9.861,9.681-14.807,14.507
		c-1.004,1.312-2.007,2.624-3.011,3.936c-4.622,8.751-4.609,17.138,1.966,25.009c0.347,0.291,0.694,0.582,1.041,0.873
		c2.922,2.887,5.931,5.693,8.749,8.679c6.089,6.452,13.063,12.054,18.435,19.193c9.708,8.38,18.715,17.461,27.135,27.129
		c0.25,0.255,0.5,0.51,0.75,0.768c8.892,8.563,17.873,17.037,26.004,26.35c-0.223,0.604-0.278,1.377-0.693,1.788
		c-8.458,8.386-16.956,16.731-25.447,25.084c-0.353,0.355-0.706,0.709-1.059,1.064c-8.536,9.442-17.616,18.343-26.872,27.071
		c-8.659,9.333-17.68,18.307-26.929,27.053c-7.956,10.103-8.521,17.315-2.191,27.955c0.744,0.886,1.488,1.773,2.231,2.659
		C1608.879,994.73,1615.743,1004.006,1625.229,1010.455z"/>
</g>
<g>
	<path style="fill:#F683AC;" d="M2155.229,1267.455c0.63,0.131,1.26,0.262,1.89,0.393c4.375,1.09,8.746,1.144,13.111-0.057
		c5.995-2.439,10.079-7.367,14.848-11.404c4.647-5.24,9.603-10.171,14.821-14.842c3.758-4.363,7.821-8.422,12.171-12.193
		c5.26-5.273,10.521-10.545,15.783-15.817c3.74-3.728,7.479-7.457,11.217-11.185c5.279-5.267,10.558-10.535,15.838-15.802
		c3.76-4.348,7.813-8.403,12.174-12.149c4.666-5.236,9.614-10.189,14.863-14.84c3.74-4.354,7.796-8.393,12.142-12.141
		c4.095-4.481,6.234-9.747,6.351-15.824c-0.193-5.775-2.609-10.602-6.338-14.87c-4.303-3.731-8.32-7.748-12.05-12.052
		c-5.274-4.694-10.255-9.682-14.945-14.959c-4.297-3.73-8.326-7.727-12.016-12.062c-5.645-5.001-10.967-10.325-15.967-15.97
		c-4.333-3.686-8.343-7.695-12.028-12.03c-5.311-4.673-10.311-9.655-14.967-14.983c-4.335-3.68-8.35-7.678-12.017-12.025
		c-5.333-4.647-10.32-9.64-14.986-14.955c-4.71-4.063-8.865-8.797-14.389-11.874c-4.172-0.208-8.345-0.704-12.515,0.027
		c-0.778,1.047-1.949,0.758-3,0.882c-3.676,2.508-7.107,5.281-10.237,8.479c-4.832,4.937-9.861,9.681-14.807,14.507
		c-1.004,1.312-2.008,2.624-3.011,3.936c-4.622,8.751-4.61,17.138,1.966,25.009c0.347,0.291,0.694,0.582,1.041,0.873
		c2.922,2.887,5.931,5.693,8.749,8.678c6.089,6.452,13.063,12.054,18.435,19.193c9.708,8.38,18.716,17.461,27.135,27.129
		c0.25,0.255,0.5,0.51,0.75,0.768c8.893,8.563,17.873,17.037,26.004,26.35c-0.223,0.604-0.278,1.377-0.693,1.788
		c-8.458,8.386-16.956,16.731-25.447,25.084c-0.353,0.354-0.706,0.709-1.059,1.063c-8.535,9.442-17.616,18.343-26.872,27.071
		c-8.66,9.333-17.68,18.307-26.929,27.053c-7.956,10.103-8.521,17.315-2.191,27.955c0.744,0.886,1.488,1.773,2.232,2.659
		C2138.879,1251.73,2145.743,1261.006,2155.229,1267.455z"/>
</g>
<g>
	<path d="M757.448,944.36c2.853-0.067,7.594-1.653,11.37-6.02c4.733-5.474,10.785-6.91,17.66-4.846
		c5.516,1.656,10.668,1.151,15.617-1.962c6.08-3.824,12.249-3.743,18.347,0.093c4.747,2.986,9.805,3.62,15.154,1.967
		c7.062-2.182,13.149-0.721,18.088,4.891c3.766,4.278,8.463,6.057,14.132,5.704c7.654-0.476,13.099,2.895,16.328,9.864
		c2.165,4.673,5.708,7.578,10.858,8.388c8.28,1.303,13.062,6.133,14.263,14.345c0.725,4.956,3.183,8.529,8.052,10.372
		c7.689,2.909,11.642,9.793,10.233,17.853c-0.863,4.937,0.635,8.647,4.752,11.538c6.883,4.834,9.032,12.649,5.483,20.285
		c-2.134,4.591-1.607,8.453,1.663,12.315c5.363,6.335,5.468,14.11,0.167,20.545c-3.338,4.052-3.985,7.989-1.719,12.791
		c3.442,7.293,1.275,15.155-5.395,19.89c-4.272,3.033-5.822,6.799-4.894,11.957c1.389,7.725-2.641,14.624-10.064,17.514
		c-4.964,1.932-7.649,5.429-8.296,10.7c-0.955,7.777-6.068,12.904-13.973,14.067c-5.376,0.791-8.998,3.756-11.202,8.615
		c-3.007,6.631-8.616,10.179-15.939,9.688c-6.074-0.407-10.867,1.656-14.923,6.171c-4.694,5.226-10.661,6.511-17.312,4.523
		c-5.523-1.65-10.651-1.142-15.61,1.96c-5.878,3.676-11.96,3.874-17.901,0.113c-5.088-3.221-10.37-3.75-16.093-2.034
		c-6.873,2.062-12.859,0.381-17.639-5.004c-3.789-4.269-8.423-6.098-14.103-5.73c-7.628,0.494-13.216-2.973-16.338-9.845
		c-2.129-4.685-5.651-7.608-10.821-8.397c-8.364-1.277-12.757-6.558-14.674-14.755c-0.847-3.621-4.009-7.837-7.285-9.531
		c-8.108-4.193-11.776-9.548-10.539-18.753c0.628-4.674-0.792-8.32-4.802-11.101c-6.991-4.848-9.143-12.56-5.547-20.232
		c2.172-4.634,1.59-8.458-1.638-12.359c-5.477-6.62-5.397-14.435,0.127-20.961c3.143-3.714,3.679-7.49,1.628-11.895
		c-3.633-7.802-1.735-15.403,5.193-20.305c4.309-3.049,5.713-6.932,4.967-12.026c-1.223-8.356,2.506-14.551,10.48-17.698
		c4.613-1.821,7.062-5.247,7.71-10.041c1.106-8.183,5.999-13.322,14.096-14.541c5.16-0.777,8.805-3.525,10.963-8.192
		C741.4,947.082,746.922,943.689,757.448,944.36z M811.316,1143.628c47.052-0.072,84.817-37.665,84.742-84.355
		c-0.074-46.259-38.324-84.111-84.796-83.915c-47.342,0.2-85.141,37.844-85.065,84.715
		C726.271,1106.146,764.529,1143.7,811.316,1143.628z"/>
	<path d="M884.073,1059.922c-0.102,39.875-32.657,71.878-73.025,71.786c-40.605-0.092-72.977-32.323-72.843-72.525
		c0.133-40.013,32.858-71.938,73.596-71.798C851.966,987.522,884.176,1019.851,884.073,1059.922z M762.81,1059.235
		c-0.084,26.881,21.204,48.199,48.173,48.239c27.078,0.04,48.57-21.089,48.672-47.85c0.101-26.609-21.47-47.923-48.526-47.947
		C784.259,1011.653,762.894,1032.683,762.81,1059.235z"/>
	<path d="M811.101,1044.237c8.488-0.04,15.405,6.62,15.562,14.984c0.162,8.589-6.741,15.608-15.416,15.676
		c-8.488,0.067-15.367-6.61-15.472-15.018C795.665,1051.072,802.322,1044.278,811.101,1044.237z"/>
	<path d="M852.519,1059.326c0.132,3.708-2.656,6.643-6.428,6.764c-3.666,0.118-6.798-2.752-6.926-6.347
		c-0.128-3.593,2.781-6.616,6.51-6.765C849.394,1052.829,852.387,1055.605,852.519,1059.326z"/>
	<path d="M817.825,1093.709c0.109,3.65-2.738,6.622-6.47,6.753c-3.698,0.13-6.677-2.697-6.745-6.401
		c-0.07-3.768,2.697-6.716,6.387-6.805C814.558,1087.17,817.719,1090.158,817.825,1093.709z"/>
	<path d="M793.295,1035.202c0.048,3.727-2.8,6.652-6.54,6.716c-3.664,0.063-6.715-2.881-6.769-6.533
		c-0.055-3.652,2.899-6.654,6.591-6.699C790.361,1028.639,793.247,1031.438,793.295,1035.202z"/>
	<path d="M835.883,1041.895c-3.714,0.097-6.758-2.744-6.864-6.408c-0.105-3.65,2.777-6.662,6.493-6.786
		c3.71-0.124,6.751,2.721,6.838,6.396C842.436,1038.752,839.538,1041.8,835.883,1041.895z"/>
	<path d="M776.211,1052.99c3.803-0.125,6.746,2.557,6.888,6.277c0.142,3.697-2.651,6.669-6.385,6.797
		c-3.781,0.13-6.755-2.589-6.873-6.283C769.721,1056.009,772.436,1053.114,776.211,1052.99z"/>
	<path d="M793.291,1083.97c-0.082,3.722-3.052,6.532-6.793,6.429c-3.746-0.103-6.603-3.066-6.507-6.747
		c0.096-3.654,3.158-6.569,6.817-6.491C790.478,1077.24,793.372,1080.279,793.291,1083.97z"/>
	<path d="M842.293,1083.631c0.106,3.81-2.627,6.667-6.424,6.716c-3.843,0.05-6.796-2.686-6.864-6.359
		c-0.068-3.651,2.842-6.703,6.497-6.815C839.222,1077.06,842.189,1079.882,842.293,1083.631z"/>
	<path d="M817.841,1025.282c-0.056,3.592-3.11,6.568-6.729,6.558c-3.639-0.011-6.536-2.994-6.507-6.701
		c0.029-3.75,2.887-6.532,6.661-6.484C815.003,1018.704,817.898,1021.622,817.841,1025.282z"/>
</g>
<g>
	<path d="M-162.27,1356.97c0.055-16.927,6.2-31.281,18.183-43.231c18.336-18.286,36.607-36.638,54.919-54.95
		c14.198-14.198,28.412-28.38,42.624-42.564c2.294-2.289,5.345-2.52,7.391-0.591c2.163,2.04,2.023,5.263-0.425,7.717
		c-10.322,10.349-20.666,20.677-31.002,31.013c-22.431,22.431-44.869,44.855-67.291,67.295
		c-18.096,18.111-19.349,47.283-2.898,66.95c18.742,22.407,52.74,23.885,73.447,3.18c66.595-66.589,133.183-133.186,199.804-199.75
		c1.01-1.009,2.314-1.962,3.653-2.351c2.146-0.624,4.257,0.532,5.228,2.347c1.085,2.028,0.793,4.31-0.915,6.061
		c-3.468,3.555-6.975,7.07-10.486,10.582c-19.361,19.369-38.724,38.735-58.094,58.096c-27.351,27.338-54.708,54.67-82.061,82.005
		c-16.963,16.952-33.721,34.116-50.947,50.797c-15.019,14.543-33.247,19.616-53.699,15.455
		c-19.166-3.899-32.913-15.207-41.621-32.588C-160.451,1374.485-162.391,1365.943-162.27,1356.97z"/>
	<path d="M-99.986,1391.356c-20.702,0.064-37.878-17.189-37.318-38.618c0.53-20.306,17.846-36.635,38.554-36.095
		c20.066,0.523,36.424,17.069,36.232,37.545C-62.725,1376.253-80.773,1391.6-99.986,1391.356z M-100.142,1326.632
		c-14.75,0.005-27.175,12.395-27.149,27.073c0.027,15.512,12.223,27.734,27.63,27.691c14.918-0.041,27.115-12.344,27.097-27.331
		C-72.582,1338.635-84.654,1326.627-100.142,1326.632z"/>
	<path d="M-43.328,1261.734c0.41-0.678,0.948-2.113,1.931-3.109c7.877-7.974,15.845-15.857,23.771-23.782
		c8.979-8.977,17.941-17.971,26.915-26.954c8.924-8.933,17.843-17.872,26.785-26.787c2.567-2.559,5.515-2.718,7.687-0.515
		c2.185,2.217,1.961,5.035-0.673,7.67c-13.64,13.645-27.295,27.276-40.938,40.918c-11.685,11.685-23.36,23.38-35.043,35.066
		c-0.752,0.752-1.487,1.535-2.318,2.193c-1.566,1.241-3.349,1.592-5.173,0.683C-42.236,1266.196-43.227,1264.622-43.328,1261.734z"
		/>
	<path d="M104.64,1171.755c2.536,0.261,4.112,0.983,5.039,2.846c0.995,2.001,0.878,3.9-0.648,5.501
		c-3.081,3.232-6.251,6.379-9.409,9.537c-20.753,20.751-41.496,41.513-62.317,62.197c-1.107,1.099-2.835,1.952-4.371,2.146
		c-2.013,0.254-3.692-0.976-4.44-2.975c-0.754-2.017-0.414-3.909,1.149-5.485c3.841-3.875,7.68-7.754,11.536-11.614
		c12.272-12.282,24.547-24.562,36.831-36.833c7.821-7.814,15.636-15.634,23.521-23.384
		C102.484,1172.751,103.852,1172.233,104.64,1171.755z"/>
	<path d="M13.043,1289.508c-2.663,0.041-4.759-1.937-4.826-4.553c-0.066-2.575,2.053-4.78,4.623-4.812
		c2.42-0.03,4.745,2.291,4.757,4.748C17.608,1287.373,15.54,1289.47,13.043,1289.508z"/>
	<path d="M-68.141,1280.869c-2.408,0.029-4.466-1.984-4.481-4.382c-0.016-2.467,1.9-4.303,4.486-4.299
		c2.438,0.003,4.323,1.825,4.365,4.216C-63.729,1278.852-65.674,1280.839-68.141,1280.869z"/>
	<path d="M-125.455,1278.18c0.025,2.577-1.822,4.515-4.317,4.528c-2.498,0.014-4.37-1.916-4.365-4.499
		c0.004-2.39,1.936-4.306,4.34-4.304C-127.361,1273.907-125.479,1275.76-125.455,1278.18z"/>
	<path d="M68.373,1288.671c-2.533,0.048-4.414-1.76-4.5-4.324c-0.077-2.302,1.852-4.321,4.21-4.405
		c2.532-0.09,4.547,1.758,4.597,4.218C72.732,1286.7,70.895,1288.623,68.373,1288.671z"/>
	<path d="M-51.501,1329.337c2.387-0.025,4.31,1.839,4.374,4.24c0.065,2.449-1.734,4.356-4.158,4.407
		c-2.587,0.055-4.563-1.735-4.646-4.208C-56.011,1331.375-54.003,1329.363-51.501,1329.337z"/>
	<path d="M-13.393,1206.396c1.726-0.035,3.076,1.259,3.019,2.81c-0.061,1.669-0.96,2.618-2.656,2.694
		c-1.612,0.073-2.963-1.181-2.848-2.735C-15.76,1207.563-14.866,1206.578-13.393,1206.396z"/>
	<path d="M76.819,1186.919c-0.091,1.851-1.445,3.1-2.992,2.935c-1.689-0.18-2.498-1.307-2.555-2.879
		c-0.055-1.543,1.461-2.846,2.984-2.635C75.863,1184.563,76.78,1185.51,76.819,1186.919z"/>
	<path d="M121.104,1240.68c-1.652,0.038-3.01-1.229-2.939-2.777c0.075-1.645,0.972-2.628,2.644-2.743
		c1.611-0.111,2.862,1.115,2.834,2.732C123.615,1239.595,122.605,1240.412,121.104,1240.68z"/>
	<path d="M5.253,1255.76c-1.672-0.127-2.596-1.022-2.687-2.688c-0.088-1.614,1.179-2.898,2.746-2.867
		c1.489,0.03,2.895,1.427,2.755,2.932C7.916,1254.761,6.906,1255.636,5.253,1255.76z"/>
	<path d="M-102.201,1351.135c-3.634,0.001-6.596-2.953-6.634-6.616c-0.038-3.729,3.024-6.801,6.727-6.75
		c3.757,0.052,6.585,2.897,6.589,6.627C-95.514,1348.244-98.381,1351.134-102.201,1351.135z"/>
	<path d="M-112.736,1361.655c-1.559-0.055-2.8-1.401-2.635-2.976c0.175-1.664,1.173-2.539,2.849-2.509
		c1.75,0.031,2.527,1.196,2.686,2.732C-109.684,1360.36-111.213,1361.709-112.736,1361.655z"/>
	<path d="M-84.262,1351.945c-1.474-0.188-2.499-0.996-2.597-2.682c-0.091-1.554,1.199-2.856,2.764-2.867
		c1.438-0.01,2.773,1.278,2.764,2.666C-81.341,1350.644-82.598,1351.938-84.262,1351.945z"/>
	<path d="M-93.186,1369.146c-1.993-0.025-3.134-1.219-3.041-2.862c0.098-1.728,1.222-2.512,2.764-2.646
		c1.461-0.127,2.918,1.445,2.739,2.914C-90.917,1368.141-91.844,1369.093-93.186,1369.146z"/>
</g>
<g>
	<path style="fill:none;stroke:#000000;stroke-width:20;stroke-miterlimit:10;" d="M-1211,1228c-3.301-0.251-6.599-0.61-9.905-0.734
		c-11.65-0.44-23.314-0.615-34.953-1.249c-9.544-0.52-15.599-6.703-16.16-16.375c-0.559-9.641-0.989-19.306-0.984-28.961
		c0.037-61.992,0.02-3.986,0.63-65.974c0.061-6.18,3.746-12.539,6.547-18.436c6.465-13.612,16.525-24.156,30.905-28.906
		c7.869-2.599,16.669-3.126,25.069-3.247c43.319-0.624,86.645-1.049,129.969-1.109c116.986-0.162,233.973-0.223,350.959-0.082
		c57.489,0.069,114.977,0.931,172.466,0.92c24.636-0.005,40.968,12.104,52.718,32.475c4.77,8.27,6.852,16.798,6.806,26.522
		c-0.295,63.49-0.062,6.982-0.086,70.474c-0.002,5.82-0.393,11.658-0.948,17.455c-0.836,8.716-6.908,14.754-15.675,15.211
		c-12.805,0.668-25.634,0.89-38.45,1.357c-2.308,0.084-4.606,0.433-6.908,0.66C-776.333,1228-993.667,1228-1211,1228z"/>
	<path style="fill:none;stroke:#000000;stroke-width:20;stroke-miterlimit:10;" d="M-514,368c3.872,2.481,8.355,4.352,11.522,7.534
		c41.002,41.205,81.882,82.532,122.617,124.001c7.199,7.328,7.377,14.084,0.36,21.571c-19.817,21.144-39.812,42.131-60.151,62.771
		c-19.408,19.695-39.32,38.893-59.057,58.263c-2.491,2.445-5.173,4.718-7.922,6.872c-7.266,5.695-15.654,5.627-22.872-0.14
		c-2.712-2.166-5.291-4.498-9.019-7.685c-18.099,18.541-35.945,37.202-54.234,55.42c-11.676,11.63-23.859,22.768-36.102,33.808
		c-7.244,6.532-13.807,6.627-21.569,0.597c-4.578-3.557-8.68-7.76-12.801-11.867c-24.185-24.104-48.279-48.3-72.481-72.388
		c-7.442-7.407-8.156-18.513-0.608-26.382c21.217-22.12,42.657-44.028,64.145-65.887c7.688-7.821,15.765-15.259,23.775-22.978
		c-3.04-3.553-5.524-6.211-7.731-9.082c-5.797-7.539-6.045-15.212,0.456-22.171c17.164-18.377,34.477-36.631,52.203-54.464
		c23.252-23.393,46.909-46.384,70.522-69.415c3.266-3.185,7.28-5.605,10.947-8.379C-519.333,368-516.667,368-514,368z"/>
	<path style="fill:none;stroke:#000000;stroke-width:20;stroke-miterlimit:10;" d="M-660.665,857.686c27.439,0,54.38,0,81.56,0
		c-2.483-23.511-6.779-46.346-13.322-68.76c-1.115-3.82-1.808-7.763-2.729-11.641c-2.142-9.015,1.972-15.604,8.546-20.919
		c7.273-5.881,22.08-3.127,26.704,5.742c4.184,8.027,7.13,16.81,9.75,25.521c9.795,32.559,11.722,66.17,11.848,99.856
		c0.147,39.326-0.569,78.656-0.94,117.983c-0.072,7.634-7.857,15.29-15.539,15.291c-74.829,0.009-149.658-0.007-224.487-0.009
		c-145.325-0.003-290.651-0.017-435.976,0.083c-3.707,0.003-5.947-1.561-8.681-3.719c-6.555-5.174-7.934-11.456-7.771-19.573
		c0.887-43.986,1.621-87.985,1.525-131.978c-0.156-70.647,23.653-133.221,64.23-189.711
		c46.119-64.205,107.72-107.56,183.436-130.469c33.694-10.195,68.345-15.245,103.496-14.131
		c33.841,1.073,67.329,5.707,99.541,16.984c3.43,1.201,6.807,2.769,9.906,4.663c12.331,7.537,12.495,25.91,0.061,33.323
		c-3.16,1.884-7.67,2.858-11.307,2.369c-22.592-3.037-45.113-6.61-67.657-10.002c-1.48-0.223-2.962-0.44-4.447-0.632
		c-9.875-1.281-10.169-1.284-10.358,8.91c-0.396,21.325-0.397,42.656-0.704,63.983c-0.045,3.096,1.167,3.848,4.009,4.209
		c100.342,12.728,177.425,85.394,196.048,184.718C-662.822,845.651-661.782,851.537-660.665,857.686z"/>
</g>
<g>
	<path style="fill:#4D6EF4;" d="M1512.621,402.376c-111.061,2.572-210.19-92.165-212.55-203.134
		c-2.569-120.831,88.544-218.201,206.559-221.009c121.445-2.89,213.565,92.565,217.012,203.426
		C1727.467,304.672,1635.717,399.525,1512.621,402.376z M1511.888,19.219c-63.891,0.925-122.461,35.646-150.388,90.642
		c-30.324,59.718-27.371,118.342,8.449,175.159c2.191,3.476,3.233,4.365,6.403,0.582c20.106-23.994,45.827-37.857,77.131-39.864
		c24.885-1.595,48.885,13.387,73.918,6.193c48.124-13.83,88.538-3.442,121.327,34.949c0.391,0.458,3.758-0.519,4.528-1.65
		c20.505-30.119,29.74-63.037,29.062-99.868C1680.644,94.557,1602.83,17.902,1511.888,19.219z M1505.037,361.124
		c47.311-0.132,83.208-13.205,114.672-38.53c1.166-0.938,2.07-4.181,1.391-5.139c-12.556-17.691-30.445-30.85-51.216-29.728
		c-31.943,1.726-63.54,11.489-95.711,2.141c-30.513-8.865-52.454,4.422-70.822,27.014c-0.835,1.027-0.614,4.4,0.341,5.179
		C1435.146,347.728,1471.227,360.756,1505.037,361.124z"/>
	<path style="fill:#4D6EF4;" d="M1512.337,60.61c47.15,0.697,82.338,37.194,81.627,84.662c-0.655,43.716-38.252,79.64-82.793,79.107
		c-46.112-0.551-81.903-37.694-81.176-84.242C1430.682,96.174,1468.181,59.957,1512.337,60.61z M1512.438,101.618
		c-21.897-0.711-40.704,17.501-41.353,40.043c-0.647,22.491,17.083,40.827,40.225,41.601c22.109,0.739,40.876-17.15,41.63-39.685
		C1553.697,121.011,1535.706,102.374,1512.438,101.618z"/>
</g>
<g>
	<path style="fill:#82C81F;" d="M1790.06,128c0.314-83.642,50.226-151.407,124.861-175.493
		c72.876-23.519,151.588,3.649,199.496,68.856c42.367,57.666,41.68,142.564-1.617,203.963c-1.206,1.71-2.062,3.666-3.082,5.508
		c2.024,0.318,4.143,1.194,6.058,0.868c17.019-2.894,24.921,10.357,34.612,19.819c23.484,22.929,46.617,46.221,69.698,69.559
		c10.451,10.567,10.639,21.653,0.083,32.444c-36.649,37.462-36.666,37.452-73.654,0.506c-20.512-20.489-41.136-40.868-61.39-61.608
		c-3.306-3.386-7.348-8.624-6.96-12.609c1.842-18.948-3.897-14.436-15.573-7.371c-58.92,35.65-120.205,38.42-180.431,5.115
		C1821.925,244.244,1792.29,190.718,1790.06,128z M1967.932,231.764c57.28-1.096,109.123-44.562,109.293-109.473
		c0.166-62.999-50.988-109.273-109.287-109.266c-58.367,0.007-109.239,46.412-109.236,109.25
		C1858.706,186.52,1910.539,230.741,1967.932,231.764z"/>
</g>
<path style="fill:#FC7E14;" d="M2565.064,217.78c-52.831,0-105.426,0-158.203,0c-3.672-36.31-3.671-72.374,0.024-108.847
	c52.695,0,105.234,0,158.241,0C2568.823,145.209,2568.841,181.367,2565.064,217.78z"/>
<path style="fill:#FC7E14;" d="M2410.26,80.811c7.122-38.36,15.832-75.745,39.392-107.564c23.064-31.149,53.467-29.093,76.748,5.594
	c20.558,30.629,28.763,65.816,35.348,101.97C2511.202,80.811,2461.195,80.811,2410.26,80.811z"/>
<path style="fill:#FC7E14;" d="M2561.748,246c-7.122,38.36-15.832,75.745-39.392,107.564c-23.065,31.149-53.467,29.093-76.748-5.594
	c-20.558-30.629-28.763-65.816-35.347-101.97C2460.805,246,2510.812,246,2561.748,246z"/>
<path style="fill:#FC7E14;" d="M2592.49,108.76c33.177,0,65.445,0,98.116,0c9.613,36.31,9.957,72.529-0.134,108.99
	c-32.6,0-65.011,0-98.003,0C2596.224,181.434,2596.263,145.397,2592.49,108.76z"/>
<path style="fill:#FC7E14;" d="M2379.313,217.798c-32.968,0-65.213,0-97.789,0c-10.202-35.973-9.379-72.079-0.536-108.78
	c32.172,0,64.991,0,98.493,0C2375.71,145.189,2375.899,181.205,2379.313,217.798z"/>
<path style="fill:#FC7E14;" d="M2680.753,80.949c-30.651,0-60.918,0-91.417,0c-7.809-42.181-17.496-83.54-42.214-119.716
	C2591.156-34.997,2668.553,34.333,2680.753,80.949z"/>
<path style="fill:#FC7E14;" d="M2424.687-38.623c-24.618,36.367-34.596,77.382-41.854,119.532c-30.656,0-61.053,0-91.45-0.042
	C2299.685,37.763,2378.075-32.887,2424.687-38.623z"/>
<path style="fill:#FC7E14;" d="M2423.488,365.62c-62.176-19.725-105.662-60.175-133.122-119.7c31.15,0,61.484,0,92.415,0
	c7.254,41.783,17.793,82.671,41.328,118.981C2423.875,365.118,2423.669,365.357,2423.488,365.62z"/>
<path style="fill:#FC7E14;" d="M2589.313,245.787c30.545,0,60.813,0,91.082,0.036c-4.279,39.531-84.801,112.103-133.277,119.856
	C2571.635,329.31,2581.999,288.167,2589.313,245.787z"/>
<path style="fill:#FC7E14;" d="M2424.108,364.901c0.221,0.197,0.443,0.394,1.017,0.905c-0.83-0.097-1.233-0.144-1.636-0.189
	C2423.669,365.357,2423.875,365.118,2424.108,364.901z"/>
<g>
	<path style="fill:#FC7E14;" d="M1784.026,1486.022c-11.745-11.455-21.984-21.219-31.977-31.228
		c-33.089-33.142-65.869-66.597-99.257-99.434c-10.255-10.086-10.42-24.23,0.051-33.63c5.697-5.115,10.866-10.814,16.338-16.183
		c9.26-9.085,21.532-9.139,30.633-0.055c54.614,54.514,109.106,109.151,163.884,163.5c9.76,9.683,8.977,23.701-0.022,32.581
		c-47.807,47.176-95.133,94.839-142.629,142.329c-7.41,7.409-14.745,14.898-22.29,22.169c-8.251,7.952-19.875,8.086-28.287,0.183
		c-7.041-6.615-13.884-13.46-20.502-20.498c-7.475-7.949-6.947-20.092,1.164-28.359c16.107-16.418,32.203-32.851,48.584-48.993
		C1727.375,1541.148,1755.251,1514.115,1784.026,1486.022z"/>
</g>
</svg>
